<svg xmlns="http://www.w3.org/2000/svg" id="Layer_1" data-name="Layer 1" viewBox="0 0 1244.47 350.53"><defs><style>      .cls-1 {        fill: #432e7a;      }      .cls-2 {        fill: #7b5ec6;      }    </style></defs><g><path class="cls-2" d="m213.24,157.28c32.89,0,59.56-10.21,59.56-36.48s-26.67-47.52-59.56-47.52-59.56,21.29-59.56,47.52,26.67,36.48,59.56,36.48h0Z"></path><path class="cls-2" d="m250.16,166.57l-.44.04c-11.04.84-21.17,5.26-30.3,13.16,12.84,8.01,23.8,13.31,33.92,16.38,11.88,3.63,20.29,13.59,21.93,25.99,1.59,12.16-3.79,23.72-14.07,30.14l-.68.4c-22.04,13.67-46.84,21.21-69.84,21.21-1.24,0-2.43-.04-3.63-.08,53.82,11.88,104.24-8.53,113.69-46.6,1.59-6.46,1.91-13.04,1.08-19.53-3.19-25.15-26.35-42.93-51.66-41.1h0Z"></path><path class="cls-2" d="m258.01,248.65c.2-.12.44-.28.64-.4,19.02-11.92,14.71-40.94-6.74-47.48-13.08-3.99-27.11-11.36-43.81-22.6-15.51-10.44-30.97-13.95-45.92-10.36l-.44.12c-24.64,6.02-41.26,30.06-36.59,55.01,1.2,6.46,3.51,12.6,7.02,18.26,21.21,34.08,77.54,37.43,125.85,7.45h0Z"></path><path class="cls-2" d="m368.19,175.26c0-20.89-4.11-41.18-12.16-60.27-7.81-18.42-18.98-35-33.17-49.23-14.19-14.23-30.77-25.39-49.23-33.17-19.09-8.09-39.39-12.16-60.27-12.16s-41.18,4.11-60.27,12.16c-18.42,7.77-35,18.94-49.19,33.17s-25.39,30.77-33.17,49.23c-8.09,19.09-12.16,39.39-12.16,60.27s4.11,41.18,12.16,60.27c7.81,18.42,18.98,35,33.17,49.23s30.77,25.39,49.23,33.17c19.09,8.09,39.39,12.16,60.27,12.16s41.18-4.11,60.27-12.16c18.42-7.81,35-18.98,49.23-33.17,14.23-14.19,25.39-30.77,33.17-49.23,8.05-19.09,12.12-39.39,12.12-60.27Zm-154.83,148.05c-81.76,0-148.05-66.29-148.05-148.05S131.6,27.17,213.36,27.17s148.05,66.29,148.05,148.05-66.29,148.09-148.05,148.09Z"></path></g><g><path class="cls-1" d="m631.01,151.42h27.75c1.12,0,1.99.92,1.99,1.99v72.91c0,1.12-.92,1.99-1.99,1.99h-27.75c-1.12,0-1.99-.92-1.99-1.99v-72.91c0-1.08.88-1.99,1.99-1.99Z"></path><path class="cls-1" d="m1030.44,126.19h27.75c1.12,0,1.99.92,1.99,1.99v98.14c0,1.12-.92,1.99-1.99,1.99h-27.75c-1.12,0-1.99-.92-1.99-1.99v-98.1c0-1.12.92-2.03,1.99-2.03Z"></path><path class="cls-1" d="m584.61,150.75c-4.19.28-9.53,4.31-12.64,8.73-3.11,4.42-6.98,2.11-6.98.6v-5.34c0-1.87-1.51-3.39-3.39-3.39h-24.99c-1.87,0-3.39,1.51-3.39,3.39v70.2c0,1.87,1.51,3.39,3.39,3.39h24.99c1.87,0,3.39-1.51,3.39-3.39v-31.05c.08-4.46.88-17.02,7.06-25.75,4.07-5.78,6.58-7.77,11.16-5.38s10.13-1.32,9.73-6.02-4.11-6.26-8.33-5.98h0Z"></path><path class="cls-1" d="m1182.48,151.34h-4.66c-1.2,0-2.27.64-2.91,1.63l-21.17,34.64c-1.32,2.15-4.42,2.15-5.78.04l-22.08-34.76c-.64-1-1.71-1.55-2.87-1.55h-28.62c-2.67,0-4.31,2.95-2.87,5.18l43.93,70.2c1.28,1.99,4.15,2.15,5.58.28l44.37-70.44c1.4-2.27-.24-5.22-2.91-5.22h0Z"></path><path class="cls-1" d="m511.66,126.35h-101.65c-1.87,0-3.39,1.51-3.39,3.39v3.11c0,1.87,1.51,3.39,3.39,3.39h31.53c1.87,0,3.39,1.51,3.39,3.39v85.31c0,1.87,1.51,3.39,3.39,3.39h24.99c1.87,0,3.39-1.51,3.39-3.39v-85.31c0-1.87,1.51-3.39,3.39-3.39h31.53c1.87,0,3.39-1.51,3.39-3.39v-3.11c.04-1.87-1.47-3.39-3.35-3.39h0Z"></path><path class="cls-1" d="m873.86,170.68c-3.95-3.99-9.25-8.65-15.75-13.95-6.46-5.26-10.84-9.37-13.04-12.16-1.2-1.51-1.79-3.23-1.79-5.02,0-4.27,3.27-6.38,9.93-6.38,3.71,0,7.53.64,11.4,1.95,1.79.6,3.39,1.28,4.78,2.03,1.08.6,3.31,1.79,4.62,2.71,1.63,1.12,1.95,1.32,2.63,1.55.88.28,1.75.16,2.51-.36.92-.64,1.44-1.83,1.44-3.11s-.88-2.35-3.23-4.07c-1.32-.96-3.95-2.47-9.01-4.39-4.39-1.63-9.41-2.43-14.87-2.43-10.76,0-19.41,2.67-25.67,7.89-2.95,2.43-5.18,5.3-6.7,8.53-1.51,3.23-2.27,6.54-2.27,9.89s.4,6.34,1.16,9.05c2.15,7.73,9.37,16.34,21.41,25.63l11.96,9.37c4.07,3.31,7.26,6.14,9.49,8.49,2.55,2.71,3.87,5.38,3.87,8.01,0,2.83-1.44,5.1-4.39,6.94-1.4.88-3.15,1.55-5.22,2.03-2.07.52-5.1.76-8.97.76s-8.09-.76-12.64-2.27c-1.63-.6-4.23-1.71-6.18-2.67l-1.44-.68c-1.12-.56-2.67-1.4-4.58-2.55l-.76-.48c-1.91-1.2-2.99-1.83-4.23-1.2-.96.48-1.95,1.24-1.95,2.99,0,1.32.68,2.55,1.95,3.67,1.2,1.04,2.67,2.07,4.31,2.99,7.37,4.27,16.54,6.46,27.23,6.46s19.81-2.91,27.07-8.65c3.47-2.75,6.18-6.06,8.09-9.89,1.91-3.83,2.87-8.49,2.87-13.95s-1.67-10.8-4.98-15.87c-2.07-3.31-5.1-6.94-9.05-10.88h0Z"></path><path class="cls-1" d="m644.8,142.38c8.53,0,15.43-2.67,15.43-9.45s-6.9-12.32-15.43-12.32-15.43,5.5-15.43,12.32c0,6.78,6.94,9.45,15.43,9.45Z"></path><path class="cls-1" d="m976.51,154.25c-2.75-1.71-5.74-2.99-8.97-3.83-3.23-.88-6.38-1.28-9.53-1.28-5.9,0-11.32,1.04-16.34,3.11-5.02,2.07-9.41,4.94-13.16,8.61s-6.7,7.97-8.81,12.92c-2.11,4.98-3.19,10.36-3.19,16.14s1.12,10.64,3.35,15.43,5.18,8.97,8.89,12.52c4.7,4.5,10.36,7.81,16.98,9.89,2.23.68,4.5,1.16,6.82,1.36,9.13.84,17.58-.96,25.35-5.34,6.54-3.71,10.96-7.69,14.95-14.11.52-.92.72-1.2,1.12-2.03.52-1.12.36-2.15-1-3.07-1.12-.72-1.91-.88-2.67-.92-.8-.08-1.67.4-2.11,1.12-3.59,5.78-7.37,8.97-13,12.44-5.66,3.47-11.96,4.31-18.66,4.31h0c-4.62,0-8.37-3.79-8.37-8.41v-16.62c0-2.71,2.23-4.94,4.94-4.94h40.38c1.59-.2,2.47-1,2.55-2.43-.56-8.25-2.35-15.11-5.42-20.61-3.11-5.5-7.77-10.25-14.11-14.23h0Zm-5.7,27.43c0,1.87-1.51,3.35-3.35,3.35h-16.07c-1.83,0-3.35-1.51-3.35-3.35v-18.9c0-3.79,3.07-7.1,6.82-7.45l1.91-.12h4.27c.96,0,1.95.12,2.91.28h0c3.95.64,6.86,4.07,6.86,8.05v18.14h0Z"></path><path class="cls-1" d="m788.47,151.34h-4.66c-1.2,0-2.27.64-2.91,1.63l-21.17,34.64c-1.32,2.15-4.42,2.15-5.78.04l-22.08-34.76c-.64-1-1.71-1.55-2.87-1.55h-28.62c-2.67,0-4.31,2.95-2.87,5.18l43.93,70.2c1.28,1.99,4.15,2.15,5.58.28l44.37-70.44c1.4-2.27-.24-5.22-2.91-5.22h0Z"></path></g></svg>