<?xml version="1.0" encoding="UTF-8"?>
<svg id="Layer_1" data-name="Layer 1" xmlns="http://www.w3.org/2000/svg" viewBox="0 0 2374 1426.8">
  <defs>
    <style>
      .cls-1 {
        fill: #fff;
      }
    </style>
  </defs>
  <g>
    <path class="cls-1" d="m1186.69,449.3c82.5,0,149.4-25.6,149.4-91.5s-66.9-119.2-149.4-119.2-149.4,53.4-149.4,119.2,66.9,91.5,149.4,91.5h0Z"/>
    <path class="cls-1" d="m1279.29,472.6l-1.1.1c-27.7,2.1-53.1,13.2-76,33,32.2,20.1,59.7,33.4,85.1,41.1,29.8,9.1,50.9,34.1,55,65.2,4,30.5-9.5,59.5-35.3,75.6l-1.7,1c-55.3,34.3-117.5,53.2-175.2,53.2-3.1,0-6.1-.1-9.1-.2,135,29.8,261.5-21.4,285.2-116.9,4-16.2,4.8-32.7,2.7-49-8-63.1-66.1-107.7-129.6-103.1h0Z"/>
    <path class="cls-1" d="m1298.99,678.5c.5-.3,1.1-.7,1.6-1,47.7-29.9,36.9-102.7-16.9-119.1-32.8-10-68-28.5-109.9-56.7-38.9-26.2-77.7-35-115.2-26l-1.1.3c-61.8,15.1-103.5,75.4-91.8,138,3,16.2,8.8,31.6,17.6,45.8,53.2,85.5,194.5,93.9,315.7,18.7h0Z"/>
    <path class="cls-1" d="m1575.39,494.4c0-52.4-10.3-103.3-30.5-151.2-19.6-46.2-47.6-87.8-83.2-123.5s-77.2-63.7-123.5-83.2c-47.9-20.3-98.8-30.5-151.2-30.5s-103.3,10.3-151.2,30.5c-46.2,19.5-87.8,47.5-123.4,83.2s-63.7,77.2-83.2,123.5c-20.3,47.9-30.5,98.8-30.5,151.2s10.3,103.3,30.5,151.2c19.6,46.2,47.6,87.8,83.2,123.5s77.2,63.7,123.5,83.2c47.9,20.3,98.8,30.5,151.2,30.5s103.3-10.3,151.2-30.5c46.2-19.6,87.8-47.6,123.5-83.2s63.7-77.2,83.2-123.5c20.2-47.9,30.4-98.8,30.4-151.2Zm-388.4,371.4c-205.1,0-371.4-166.3-371.4-371.4s166.3-371.5,371.4-371.5,371.4,166.3,371.4,371.4-166.3,371.5-371.4,371.5Z"/>
  </g>
  <g>
    <path class="cls-1" d="m772.51,1080.2h69.6c2.8,0,5,2.3,5,5v182.9c0,2.8-2.3,5-5,5h-69.6c-2.8,0-5-2.3-5-5v-182.9c0-2.7,2.2-5,5-5Z"/>
    <path class="cls-1" d="m1774.51,1016.9h69.6c2.8,0,5,2.3,5,5v246.2c0,2.8-2.3,5-5,5h-69.6c-2.8,0-5-2.3-5-5v-246.1c0-2.8,2.3-5.1,5-5.1Z"/>
    <path class="cls-1" d="m656.11,1078.5c-10.5.7-23.9,10.8-31.7,21.9s-17.5,5.3-17.5,1.5v-13.4c0-4.7-3.8-8.5-8.5-8.5h-62.7c-4.7,0-8.5,3.8-8.5,8.5v176.1c0,4.7,3.8,8.5,8.5,8.5h62.7c4.7,0,8.5-3.8,8.5-8.5v-77.9c.2-11.2,2.2-42.7,17.7-64.6,10.2-14.5,16.5-19.5,28-13.5s25.4-3.3,24.4-15.1-10.3-15.7-20.9-15h0Z"/>
    <path class="cls-1" d="m2155.91,1080h-11.7c-3,0-5.7,1.6-7.3,4.1l-53.1,86.9c-3.3,5.4-11.1,5.4-14.5.1l-55.4-87.2c-1.6-2.5-4.3-3.9-7.2-3.9h-71.8c-6.7,0-10.8,7.4-7.2,13l110.2,176.1c3.2,5,10.4,5.4,14,.7l111.3-176.7c3.5-5.7-.6-13.1-7.3-13.1h0Z"/>
    <path class="cls-1" d="m473.11,1017.3h-255c-4.7,0-8.5,3.8-8.5,8.5v7.8c0,4.7,3.8,8.5,8.5,8.5h79.1c4.7,0,8.5,3.8,8.5,8.5v214c0,4.7,3.8,8.5,8.5,8.5h62.7c4.7,0,8.5-3.8,8.5-8.5v-214c0-4.7,3.8-8.5,8.5-8.5h79.1c4.7,0,8.5-3.8,8.5-8.5v-7.8c.1-4.7-3.7-8.5-8.4-8.5h0Z"/>
    <path class="cls-1" d="m1381.71,1128.5c-9.9-10-23.2-21.7-39.5-35-16.2-13.2-27.2-23.5-32.7-30.5-3-3.8-4.5-8.1-4.5-12.6,0-10.7,8.2-16,24.9-16,9.3,0,18.9,1.6,28.6,4.9,4.5,1.5,8.5,3.2,12,5.1,2.7,1.5,8.3,4.5,11.6,6.8,4.1,2.8,4.9,3.3,6.6,3.9,2.2.7,4.4.4,6.3-.9,2.3-1.6,3.6-4.6,3.6-7.8s-2.2-5.9-8.1-10.2c-3.3-2.4-9.9-6.2-22.6-11-11-4.1-23.6-6.1-37.3-6.1-27,0-48.7,6.7-64.4,19.8-7.4,6.1-13,13.3-16.8,21.4s-5.7,16.4-5.7,24.8,1,15.9,2.9,22.7c5.4,19.4,23.5,41,53.7,64.3l30,23.5c10.2,8.3,18.2,15.4,23.8,21.3,6.4,6.8,9.7,13.5,9.7,20.1,0,7.1-3.6,12.8-11,17.4-3.5,2.2-7.9,3.9-13.1,5.1-5.2,1.3-12.8,1.9-22.5,1.9s-20.3-1.9-31.7-5.7c-4.1-1.5-10.6-4.3-15.5-6.7l-3.6-1.7c-2.8-1.4-6.7-3.5-11.5-6.4l-1.9-1.2c-4.8-3-7.5-4.6-10.6-3-2.4,1.2-4.9,3.1-4.9,7.5,0,3.3,1.7,6.4,4.9,9.2,3,2.6,6.7,5.2,10.8,7.5,18.5,10.7,41.5,16.2,68.3,16.2s49.7-7.3,67.9-21.7c8.7-6.9,15.5-15.2,20.3-24.8,4.8-9.6,7.2-21.3,7.2-35s-4.2-27.1-12.5-39.8c-5.2-8.3-12.8-17.4-22.7-27.3h0Z"/>
    <path class="cls-1" d="m807.11,1057.5c21.4,0,38.7-6.7,38.7-23.7s-17.3-30.9-38.7-30.9-38.7,13.8-38.7,30.9c0,17,17.4,23.7,38.7,23.7Z"/>
    <path class="cls-1" d="m1639.21,1087.3c-6.9-4.3-14.4-7.5-22.5-9.6-8.1-2.2-16-3.2-23.9-3.2-14.8,0-28.4,2.6-41,7.8s-23.6,12.4-33,21.6-16.8,20-22.1,32.4c-5.3,12.5-8,26-8,40.5s2.8,26.7,8.4,38.7,13,22.5,22.3,31.4c11.8,11.3,26,19.6,42.6,24.8,5.6,1.7,11.3,2.9,17.1,3.4,22.9,2.1,44.1-2.4,63.6-13.4,16.4-9.3,27.5-19.3,37.5-35.4,1.3-2.3,1.8-3,2.8-5.1,1.3-2.8.9-5.4-2.5-7.7-2.8-1.8-4.8-2.2-6.7-2.3-2-.2-4.2,1-5.3,2.8-9,14.5-18.5,22.5-32.6,31.2-14.2,8.7-30,10.8-46.8,10.8h0c-11.6,0-21-9.5-21-21.1v-41.7c0-6.8,5.6-12.4,12.4-12.4h101.3c4-.5,6.2-2.5,6.4-6.1-1.4-20.7-5.9-37.9-13.6-51.7-7.8-13.8-19.5-25.7-35.4-35.7h0Zm-14.3,68.8c0,4.7-3.8,8.4-8.4,8.4h-40.3c-4.6,0-8.4-3.8-8.4-8.4v-47.4c0-9.5,7.7-17.8,17.1-18.7l4.8-.3h10.7c2.4,0,4.9.3,7.3.7h0c9.9,1.6,17.2,10.2,17.2,20.2v45.5h0Z"/>
    <path class="cls-1" d="m1167.51,1080h-11.7c-3,0-5.7,1.6-7.3,4.1l-53.1,86.9c-3.3,5.4-11.1,5.4-14.5.1l-55.4-87.2c-1.6-2.5-4.3-3.9-7.2-3.9h-71.8c-6.7,0-10.8,7.4-7.2,13l110.2,176.1c3.2,5,10.4,5.4,14,.7l111.3-176.7c3.5-5.7-.6-13.1-7.3-13.1h0Z"/>
  </g>
</svg>